<mxfile host="app.diagrams.net" agent="Mozilla/5.0 (Windows NT 10.0; Win64; x64) AppleWebKit/537.36 (KHTML, like Gecko) Chrome/128.0.0.0 Safari/537.36" version="24.7.8">
  <diagram name="Page-1" id="2YBvvXClWsGukQMizWep">
    <mxGraphModel dx="1434" dy="772" grid="1" gridSize="10" guides="1" tooltips="1" connect="1" arrows="1" fold="1" page="1" pageScale="1" pageWidth="850" pageHeight="1100" math="0" shadow="0">
      <root>
        <mxCell id="0" />
        <mxCell id="1" parent="0" />
        <mxCell id="aM9ryv3xv72pqoxQDRHE-1" value="Pengguna" style="shape=umlLifeline;perimeter=lifelinePerimeter;whiteSpace=wrap;html=1;container=0;dropTarget=0;collapsible=0;recursiveResize=0;outlineConnect=0;portConstraint=eastwest;newEdgeStyle={&quot;edgeStyle&quot;:&quot;elbowEdgeStyle&quot;,&quot;elbow&quot;:&quot;vertical&quot;,&quot;curved&quot;:0,&quot;rounded&quot;:0};" parent="1" vertex="1">
          <mxGeometry x="30" y="40" width="100" height="680" as="geometry" />
        </mxCell>
        <mxCell id="aM9ryv3xv72pqoxQDRHE-2" value="" style="html=1;points=[];perimeter=orthogonalPerimeter;outlineConnect=0;targetShapes=umlLifeline;portConstraint=eastwest;newEdgeStyle={&quot;edgeStyle&quot;:&quot;elbowEdgeStyle&quot;,&quot;elbow&quot;:&quot;vertical&quot;,&quot;curved&quot;:0,&quot;rounded&quot;:0};" parent="aM9ryv3xv72pqoxQDRHE-1" vertex="1">
          <mxGeometry x="45" y="70" width="10" height="610" as="geometry" />
        </mxCell>
        <mxCell id="aM9ryv3xv72pqoxQDRHE-4" value="" style="html=1;points=[];perimeter=orthogonalPerimeter;outlineConnect=0;targetShapes=umlLifeline;portConstraint=eastwest;newEdgeStyle={&quot;edgeStyle&quot;:&quot;elbowEdgeStyle&quot;,&quot;elbow&quot;:&quot;vertical&quot;,&quot;curved&quot;:0,&quot;rounded&quot;:0};" parent="aM9ryv3xv72pqoxQDRHE-1" vertex="1">
          <mxGeometry x="50" y="120" width="10" height="80" as="geometry" />
        </mxCell>
        <mxCell id="aM9ryv3xv72pqoxQDRHE-5" value="Sistem Pencatatan Keuangan" style="shape=umlLifeline;perimeter=lifelinePerimeter;whiteSpace=wrap;html=1;container=0;dropTarget=0;collapsible=0;recursiveResize=0;outlineConnect=0;portConstraint=eastwest;newEdgeStyle={&quot;edgeStyle&quot;:&quot;elbowEdgeStyle&quot;,&quot;elbow&quot;:&quot;vertical&quot;,&quot;curved&quot;:0,&quot;rounded&quot;:0};" parent="1" vertex="1">
          <mxGeometry x="265" y="40" width="160" height="680" as="geometry" />
        </mxCell>
        <mxCell id="aM9ryv3xv72pqoxQDRHE-6" value="" style="html=1;points=[];perimeter=orthogonalPerimeter;outlineConnect=0;targetShapes=umlLifeline;portConstraint=eastwest;newEdgeStyle={&quot;edgeStyle&quot;:&quot;elbowEdgeStyle&quot;,&quot;elbow&quot;:&quot;vertical&quot;,&quot;curved&quot;:0,&quot;rounded&quot;:0};" parent="aM9ryv3xv72pqoxQDRHE-5" vertex="1">
          <mxGeometry x="45" y="80" width="10" height="600" as="geometry" />
        </mxCell>
        <mxCell id="aM9ryv3xv72pqoxQDRHE-7" value="Mulai" style="html=1;verticalAlign=bottom;endArrow=block;edgeStyle=elbowEdgeStyle;elbow=vertical;curved=0;rounded=0;" parent="1" source="aM9ryv3xv72pqoxQDRHE-2" target="aM9ryv3xv72pqoxQDRHE-5" edge="1">
          <mxGeometry x="0.1364" y="10" relative="1" as="geometry">
            <mxPoint x="195" y="130" as="sourcePoint" />
            <Array as="points">
              <mxPoint x="180" y="120" />
            </Array>
            <mxPoint as="offset" />
          </mxGeometry>
        </mxCell>
        <mxCell id="aM9ryv3xv72pqoxQDRHE-8" value="Konfirmasi Transaksi" style="html=1;verticalAlign=bottom;endArrow=open;dashed=1;endSize=8;edgeStyle=elbowEdgeStyle;elbow=vertical;curved=0;rounded=0;" parent="1" source="aM9ryv3xv72pqoxQDRHE-5" target="aM9ryv3xv72pqoxQDRHE-2" edge="1">
          <mxGeometry relative="1" as="geometry">
            <mxPoint x="195" y="205" as="targetPoint" />
            <Array as="points">
              <mxPoint x="150" y="600" />
              <mxPoint x="260" y="290" />
              <mxPoint x="190" y="280" />
            </Array>
          </mxGeometry>
        </mxCell>
        <mxCell id="aM9ryv3xv72pqoxQDRHE-9" value="Minta Info Transaksi" style="html=1;verticalAlign=bottom;endArrow=block;edgeStyle=elbowEdgeStyle;elbow=vertical;curved=0;rounded=0;" parent="1" source="aM9ryv3xv72pqoxQDRHE-5" target="aM9ryv3xv72pqoxQDRHE-4" edge="1">
          <mxGeometry relative="1" as="geometry">
            <mxPoint x="175" y="160" as="sourcePoint" />
            <Array as="points">
              <mxPoint x="190" y="160" />
            </Array>
          </mxGeometry>
        </mxCell>
        <mxCell id="aM9ryv3xv72pqoxQDRHE-10" value="Masukkan Data Transaksi" style="html=1;verticalAlign=bottom;endArrow=open;dashed=1;endSize=8;edgeStyle=elbowEdgeStyle;elbow=vertical;curved=0;rounded=0;" parent="1" source="aM9ryv3xv72pqoxQDRHE-4" target="aM9ryv3xv72pqoxQDRHE-5" edge="1">
          <mxGeometry relative="1" as="geometry">
            <mxPoint x="175" y="235" as="targetPoint" />
            <Array as="points">
              <mxPoint x="180" y="230" />
            </Array>
          </mxGeometry>
        </mxCell>
        <mxCell id="oGXNRmYpK9hgrRhwOUNr-1" value="" style="shape=image;imageAspect=0;aspect=fixed;verticalLabelPosition=bottom;verticalAlign=top;image=data:image/svg+xml,PHN2ZyB4bWxucz0iaHR0cDovL3d3dy53My5vcmcvMjAwMC9zdmciIGlkPSJleHBvcnQtc3ZnIiB3aWR0aD0iMTAwJSIgc3R5bGU9Im1heC13aWR0aDogNzkzcHg7IiB2aWV3Qm94PSItNTAgLTEwIDc5MyA2NTMiIHJvbGU9ImdyYXBoaWNzLWRvY3VtZW50IGRvY3VtZW50IiBhcmlhLXJvbGVkZXNjcmlwdGlvbj0ic2VxdWVuY2UiPjxzdHlsZT5AaW1wb3J0IHVybCgiaHR0cHM6Ly9jZG5qcy5jbG91ZGZsYXJlLmNvbS9hamF4L2xpYnMvZm9udC1hd2Vzb21lLzYuMi4wL2Nzcy9hbGwubWluLmNzcyIpOyBwIHttYXJnaW46IDA7fTwvc3R5bGU+PGc+PHJlY3QgeD0iNTQzIiB5PSI1NjciIGZpbGw9IiNlYWVhZWEiIHN0cm9rZT0iIzY2NiIgd2lkdGg9IjE1MCIgaGVpZ2h0PSI2NSIgbmFtZT0iREIiIHJ4PSIzIiByeT0iMyIgY2xhc3M9ImFjdG9yIGFjdG9yLWJvdHRvbSIvPjx0ZXh0IHg9IjYxOCIgeT0iNTk5LjUiIHN0eWxlPSJ0ZXh0LWFuY2hvcjogbWlkZGxlOyBmb250LXNpemU6IDE2cHg7IGZvbnQtd2VpZ2h0OiA0MDA7IiBhbGlnbm1lbnQtYmFzZWxpbmU9ImNlbnRyYWwiIGNsYXNzPSJhY3RvciBhY3Rvci1ib3giPjx0c3BhbiB4PSI2MTgiIGR5PSIwIj5EYXRhYmFzZTwvdHNwYW4+PC90ZXh0PjwvZz48Zz48cmVjdCB4PSIyMzEiIHk9IjU2NyIgZmlsbD0iI2VhZWFlYSIgc3Ryb2tlPSIjNjY2IiB3aWR0aD0iMjMyIiBoZWlnaHQ9IjY1IiBuYW1lPSJTeXN0ZW0iIHJ4PSIzIiByeT0iMyIgY2xhc3M9ImFjdG9yIGFjdG9yLWJvdHRvbSIvPjx0ZXh0IHg9IjM0NyIgeT0iNTk5LjUiIHN0eWxlPSJ0ZXh0LWFuY2hvcjogbWlkZGxlOyBmb250LXNpemU6IDE2cHg7IGZvbnQtd2VpZ2h0OiA0MDA7IiBhbGlnbm1lbnQtYmFzZWxpbmU9ImNlbnRyYWwiIGNsYXNzPSJhY3RvciBhY3Rvci1ib3giPjx0c3BhbiB4PSIzNDciIGR5PSIwIj5TaXN0ZW0gUGVuY2F0YXRhbiBLZXVhbmdhbjwvdHNwYW4+PC90ZXh0PjwvZz48Zz48cmVjdCB4PSIwIiB5PSI1NjciIGZpbGw9IiNlYWVhZWEiIHN0cm9rZT0iIzY2NiIgd2lkdGg9IjE1MCIgaGVpZ2h0PSI2NSIgbmFtZT0iVXNlciIgcng9IjMiIHJ5PSIzIiBjbGFzcz0iYWN0b3IgYWN0b3ItYm90dG9tIi8+PHRleHQgeD0iNzUiIHk9IjU5OS41IiBzdHlsZT0idGV4dC1hbmNob3I6IG1pZGRsZTsgZm9udC1zaXplOiAxNnB4OyBmb250LXdlaWdodDogNDAwOyIgYWxpZ25tZW50LWJhc2VsaW5lPSJjZW50cmFsIiBjbGFzcz0iYWN0b3IgYWN0b3ItYm94Ij48dHNwYW4geD0iNzUiIGR5PSIwIj5QZW5nZ3VuYTwvdHNwYW4+PC90ZXh0PjwvZz48Zz48bGluZSBpZD0iYWN0b3IxNCIgeDE9IjYxOCIgeTE9IjY1IiB4Mj0iNjE4IiB5Mj0iNTY3IiBjbGFzcz0iYWN0b3ItbGluZSAyMDAiIHN0cm9rZS13aWR0aD0iMC41cHgiIHN0cm9rZT0iIzk5OSIgbmFtZT0iREIiIGRhdGEtZXQ9ImxpZmUtbGluZSIgZGF0YS1pZD0iREIiLz48ZyBpZD0icm9vdC0xNCIgZGF0YS1ldD0icGFydGljaXBhbnQiIGRhdGEtaWQ9IkRCIj48cmVjdCB4PSI1NDMiIHk9IjAiIGZpbGw9IiNlYWVhZWEiIHN0cm9rZT0iIzY2NiIgd2lkdGg9IjE1MCIgaGVpZ2h0PSI2NSIgbmFtZT0iREIiIHJ4PSIzIiByeT0iMyIgY2xhc3M9ImFjdG9yIGFjdG9yLXRvcCIvPjx0ZXh0IHg9IjYxOCIgeT0iMzIuNSIgc3R5bGU9InRleHQtYW5jaG9yOiBtaWRkbGU7IGZvbnQtc2l6ZTogMTZweDsgZm9udC13ZWlnaHQ6IDQwMDsiIGFsaWdubWVudC1iYXNlbGluZT0iY2VudHJhbCIgY2xhc3M9ImFjdG9yIGFjdG9yLWJveCI+PHRzcGFuIHg9IjYxOCIgZHk9IjAiPkRhdGFiYXNlPC90c3Bhbj48L3RleHQ+PC9nPjwvZz48Zz48bGluZSBpZD0iYWN0b3IxMyIgeDE9IjM0NyIgeTE9IjY1IiB4Mj0iMzQ3IiB5Mj0iNTY3IiBjbGFzcz0iYWN0b3ItbGluZSAyMDAiIHN0cm9rZS13aWR0aD0iMC41cHgiIHN0cm9rZT0iIzk5OSIgbmFtZT0iU3lzdGVtIiBkYXRhLWV0PSJsaWZlLWxpbmUiIGRhdGEtaWQ9IlN5c3RlbSIvPjxnIGlkPSJyb290LTEzIiBkYXRhLWV0PSJwYXJ0aWNpcGFudCIgZGF0YS1pZD0iU3lzdGVtIj48cmVjdCB4PSIyMzEiIHk9IjAiIGZpbGw9IiNlYWVhZWEiIHN0cm9rZT0iIzY2NiIgd2lkdGg9IjIzMiIgaGVpZ2h0PSI2NSIgbmFtZT0iU3lzdGVtIiByeD0iMyIgcnk9IjMiIGNsYXNzPSJhY3RvciBhY3Rvci10b3AiLz48dGV4dCB4PSIzNDciIHk9IjMyLjUiIHN0eWxlPSJ0ZXh0LWFuY2hvcjogbWlkZGxlOyBmb250LXNpemU6IDE2cHg7IGZvbnQtd2VpZ2h0OiA0MDA7IiBhbGlnbm1lbnQtYmFzZWxpbmU9ImNlbnRyYWwiIGNsYXNzPSJhY3RvciBhY3Rvci1ib3giPjx0c3BhbiB4PSIzNDciIGR5PSIwIj5TaXN0ZW0gUGVuY2F0YXRhbiBLZXVhbmdhbjwvdHNwYW4+PC90ZXh0PjwvZz48L2c+PGc+PGxpbmUgaWQ9ImFjdG9yMTIiIHgxPSI3NSIgeTE9IjY1IiB4Mj0iNzUiIHkyPSI1NjciIGNsYXNzPSJhY3Rvci1saW5lIDIwMCIgc3Ryb2tlLXdpZHRoPSIwLjVweCIgc3Ryb2tlPSIjOTk5IiBuYW1lPSJVc2VyIiBkYXRhLWV0PSJsaWZlLWxpbmUiIGRhdGEtaWQ9IlVzZXIiLz48ZyBpZD0icm9vdC0xMiIgZGF0YS1ldD0icGFydGljaXBhbnQiIGRhdGEtaWQ9IlVzZXIiPjxyZWN0IHg9IjAiIHk9IjAiIGZpbGw9IiNlYWVhZWEiIHN0cm9rZT0iIzY2NiIgd2lkdGg9IjE1MCIgaGVpZ2h0PSI2NSIgbmFtZT0iVXNlciIgcng9IjMiIHJ5PSIzIiBjbGFzcz0iYWN0b3IgYWN0b3ItdG9wIi8+PHRleHQgeD0iNzUiIHk9IjMyLjUiIHN0eWxlPSJ0ZXh0LWFuY2hvcjogbWlkZGxlOyBmb250LXNpemU6IDE2cHg7IGZvbnQtd2VpZ2h0OiA0MDA7IiBhbGlnbm1lbnQtYmFzZWxpbmU9ImNlbnRyYWwiIGNsYXNzPSJhY3RvciBhY3Rvci1ib3giPjx0c3BhbiB4PSI3NSIgZHk9IjAiPlBlbmdndW5hPC90c3Bhbj48L3RleHQ+PC9nPjwvZz48c3R5bGU+I2V4cG9ydC1zdmd7Zm9udC1mYW1pbHk6InRyZWJ1Y2hldCBtcyIsdmVyZGFuYSxhcmlhbCxzYW5zLXNlcmlmO2ZvbnQtc2l6ZToxMHB4O2ZpbGw6IzMzMzt9I2V4cG9ydC1zdmcgLmVycm9yLWljb257ZmlsbDojZmZmZmZmO30jZXhwb3J0LXN2ZyAuZXJyb3ItdGV4dHtmaWxsOiMwMDAwMDA7c3Ryb2tlOiMwMDAwMDA7fSNleHBvcnQtc3ZnIC5lZGdlLXRoaWNrbmVzcy1ub3JtYWx7c3Ryb2tlLXdpZHRoOjFweDt9I2V4cG9ydC1zdmcgLmVkZ2UtdGhpY2tuZXNzLXRoaWNre3N0cm9rZS13aWR0aDozLjVweDt9I2V4cG9ydC1zdmcgLmVkZ2UtcGF0dGVybi1zb2xpZHtzdHJva2UtZGFzaGFycmF5OjA7fSNleHBvcnQtc3ZnIC5lZGdlLXRoaWNrbmVzcy1pbnZpc2libGV7c3Ryb2tlLXdpZHRoOjA7ZmlsbDpub25lO30jZXhwb3J0LXN2ZyAuZWRnZS1wYXR0ZXJuLWRhc2hlZHtzdHJva2UtZGFzaGFycmF5OjM7fSNleHBvcnQtc3ZnIC5lZGdlLXBhdHRlcm4tZG90dGVke3N0cm9rZS1kYXNoYXJyYXk6Mjt9I2V4cG9ydC1zdmcgLm1hcmtlcntmaWxsOiMwMDAwMDA7c3Ryb2tlOiMwMDAwMDA7fSNleHBvcnQtc3ZnIC5tYXJrZXIuY3Jvc3N7c3Ryb2tlOiMwMDAwMDA7fSNleHBvcnQtc3ZnIHN2Z3tmb250LWZhbWlseToidHJlYnVjaGV0IG1zIix2ZXJkYW5hLGFyaWFsLHNhbnMtc2VyaWY7Zm9udC1zaXplOjEwcHg7fSNleHBvcnQtc3ZnIHB7bWFyZ2luOjA7fSNleHBvcnQtc3ZnIC5hY3RvcntzdHJva2U6aHNsKDAsIDAlLCA3MCUpO2ZpbGw6I2ZmZmZmZjt9I2V4cG9ydC1zdmcgdGV4dC5hY3RvciZndDt0c3BhbntmaWxsOiMzMzM7c3Ryb2tlOm5vbmU7fSNleHBvcnQtc3ZnIC5hY3Rvci1saW5le3N0cm9rZTpoc2woMCwgMCUsIDcwJSk7fSNleHBvcnQtc3ZnIC5tZXNzYWdlTGluZTB7c3Ryb2tlLXdpZHRoOjEuNTtzdHJva2UtZGFzaGFycmF5Om5vbmU7c3Ryb2tlOiMzMzM7fSNleHBvcnQtc3ZnIC5tZXNzYWdlTGluZTF7c3Ryb2tlLXdpZHRoOjEuNTtzdHJva2UtZGFzaGFycmF5OjIsMjtzdHJva2U6IzMzMzt9I2V4cG9ydC1zdmcgI2Fycm93aGVhZCBwYXRoe2ZpbGw6IzMzMztzdHJva2U6IzMzMzt9I2V4cG9ydC1zdmcgLnNlcXVlbmNlTnVtYmVye2ZpbGw6I2ZmZmZmZjt9I2V4cG9ydC1zdmcgI3NlcXVlbmNlbnVtYmVye2ZpbGw6IzMzMzt9I2V4cG9ydC1zdmcgI2Nyb3NzaGVhZCBwYXRoe2ZpbGw6IzMzMztzdHJva2U6IzMzMzt9I2V4cG9ydC1zdmcgLm1lc3NhZ2VUZXh0e2ZpbGw6IzMzMztzdHJva2U6bm9uZTt9I2V4cG9ydC1zdmcgLmxhYmVsQm94e3N0cm9rZTpoc2woMCwgMCUsIDcwJSk7ZmlsbDojZmZmZmZmO30jZXhwb3J0LXN2ZyAubGFiZWxUZXh0LCNleHBvcnQtc3ZnIC5sYWJlbFRleHQmZ3Q7dHNwYW57ZmlsbDojMzMzO3N0cm9rZTpub25lO30jZXhwb3J0LXN2ZyAubG9vcFRleHQsI2V4cG9ydC1zdmcgLmxvb3BUZXh0Jmd0O3RzcGFue2ZpbGw6IzMzMztzdHJva2U6bm9uZTt9I2V4cG9ydC1zdmcgLmxvb3BMaW5le3N0cm9rZS13aWR0aDoycHg7c3Ryb2tlLWRhc2hhcnJheToyLDI7c3Ryb2tlOmhzbCgwLCAwJSwgNzAlKTtmaWxsOmhzbCgwLCAwJSwgNzAlKTt9I2V4cG9ydC1zdmcgLm5vdGV7c3Ryb2tlOmhzbCg1Mi42ODI5MjY4MjkzLCA2MCUsIDczLjkyMTU2ODYyNzUlKTtmaWxsOiNmZmY1YWQ7fSNleHBvcnQtc3ZnIC5ub3RlVGV4dCwjZXhwb3J0LXN2ZyAubm90ZVRleHQmZ3Q7dHNwYW57ZmlsbDojMzMzO3N0cm9rZTpub25lO30jZXhwb3J0LXN2ZyAuYWN0aXZhdGlvbjB7ZmlsbDpoc2woLTEyMCwgMCUsIDgwJSk7c3Ryb2tlOmhzbCgtMTIwLCAwJSwgNzAlKTt9I2V4cG9ydC1zdmcgLmFjdGl2YXRpb24xe2ZpbGw6aHNsKC0xMjAsIDAlLCA4MCUpO3N0cm9rZTpoc2woLTEyMCwgMCUsIDcwJSk7fSNleHBvcnQtc3ZnIC5hY3RpdmF0aW9uMntmaWxsOmhzbCgtMTIwLCAwJSwgODAlKTtzdHJva2U6aHNsKC0xMjAsIDAlLCA3MCUpO30jZXhwb3J0LXN2ZyAuYWN0b3JQb3B1cE1lbnV7cG9zaXRpb246YWJzb2x1dGU7fSNleHBvcnQtc3ZnIC5hY3RvclBvcHVwTWVudVBhbmVse3Bvc2l0aW9uOmFic29sdXRlO2ZpbGw6I2ZmZmZmZjtib3gtc2hhZG93OjBweCA4cHggMTZweCAwcHggcmdiYSgwLDAsMCwwLjIpO2ZpbHRlcjpkcm9wLXNoYWRvdygzcHggNXB4IDJweCByZ2IoMCAwIDAgLyAwLjQpKTt9I2V4cG9ydC1zdmcgLmFjdG9yLW1hbiBsaW5le3N0cm9rZTpoc2woMCwgMCUsIDcwJSk7ZmlsbDojZmZmZmZmO30jZXhwb3J0LXN2ZyAuYWN0b3ItbWFuIGNpcmNsZSwjZXhwb3J0LXN2ZyBsaW5le3N0cm9rZTpoc2woMCwgMCUsIDcwJSk7ZmlsbDojZmZmZmZmO3N0cm9rZS13aWR0aDoycHg7fSNleHBvcnQtc3ZnIC5ub2RlIC5uZW8tbm9kZXtzdHJva2U6IzAwMDAwMDt9I2V4cG9ydC1zdmcgW2RhdGEtbG9vaz0ibmVvIl0ubm9kZSByZWN0LCNleHBvcnQtc3ZnIFtkYXRhLWxvb2s9Im5lbyJdLmNsdXN0ZXIgcmVjdCwjZXhwb3J0LXN2ZyBbZGF0YS1sb29rPSJuZW8iXS5ub2RlIHBvbHlnb257c3Ryb2tlOnVybCgjZXhwb3J0LXN2Zy1ncmFkaWVudCk7ZmlsdGVyOmRyb3Atc2hhZG93KCAwcHggMXB4IDJweCByZ2JhKDAsIDAsIDAsIDAuMjUpKTt9I2V4cG9ydC1zdmcgW2RhdGEtbG9vaz0ibmVvIl0ubm9kZSByZWN0LCNleHBvcnQtc3ZnIFtkYXRhLWxvb2s9Im5lbyJdLm5vZGUgcG9seWdvbiwjZXhwb3J0LXN2ZyBbZGF0YS1sb29rPSJuZW8iXS5ub2RlIHBhdGh7c3Ryb2tlOnVybCgjZXhwb3J0LXN2Zy1ncmFkaWVudCk7ZmlsdGVyOmRyb3Atc2hhZG93KCAwcHggMXB4IDJweCByZ2JhKDAsIDAsIDAsIDAuMjUpKTt9I2V4cG9ydC1zdmcgW2RhdGEtbG9vaz0ibmVvIl0ubm9kZSAubmVvLWxpbmUgcGF0aHtzdHJva2U6aHNsKDAsIDAlLCA3MCUpO2ZpbHRlcjpub25lO30jZXhwb3J0LXN2ZyBbZGF0YS1sb29rPSJuZW8iXS5ub2RlIGNpcmNsZXtzdHJva2U6dXJsKCNleHBvcnQtc3ZnLWdyYWRpZW50KTtmaWx0ZXI6ZHJvcC1zaGFkb3coIDBweCAxcHggMnB4IHJnYmEoMCwgMCwgMCwgMC4yNSkpO30jZXhwb3J0LXN2ZyBbZGF0YS1sb29rPSJuZW8iXS5ub2RlIGNpcmNsZSAuc3RhdGUtc3RhcnR7ZmlsbDojMDAwMDAwO30jZXhwb3J0LXN2ZyBbZGF0YS1sb29rPSJuZW8iXS5zdGF0ZWRpYWdyYW0tY2x1c3RlciByZWN0e2ZpbGw6I2ZmZmZmZjtzdHJva2U6dXJsKCNleHBvcnQtc3ZnLWdyYWRpZW50KTtzdHJva2Utd2lkdGg6MXB4O30jZXhwb3J0LXN2ZyA6cm9vdHstLW1lcm1haWQtZm9udC1mYW1pbHk6InRyZWJ1Y2hldCBtcyIsdmVyZGFuYSxhcmlhbCxzYW5zLXNlcmlmO308L3N0eWxlPjxnLz48ZGVmcz48c3ltYm9sIGlkPSJjb21wdXRlciIgd2lkdGg9IjI0IiBoZWlnaHQ9IjI0Ij48cGF0aCB0cmFuc2Zvcm09InNjYWxlKC41KSIgZD0iTTIgMnYxM2gyMHYtMTNoLTIwem0xOCAxMWgtMTZ2LTloMTZ2OXptLTEwLjIyOCA2bC40NjYtMWgzLjUyNGwuNDY3IDFoLTQuNDU3em0xNC4yMjggM2gtMjRsMi02aDIuMTA0bC0xLjMzIDRoMTguNDVsLTEuMjk3LTRoMi4wNzNsMiA2em0tNS0xMGgtMTR2LTdoMTR2N3oiLz48L3N5bWJvbD48L2RlZnM+PGRlZnM+PHN5bWJvbCBpZD0iZGF0YWJhc2UiIGZpbGwtcnVsZT0iZXZlbm9kZCIgY2xpcC1ydWxlPSJldmVub2RkIj48cGF0aCB0cmFuc2Zvcm09InNjYWxlKC41KSIgZD0iTTEyLjI1OC4wMDFsLjI1Ni4wMDQuMjU1LjAwNS4yNTMuMDA4LjI1MS4wMS4yNDkuMDEyLjI0Ny4wMTUuMjQ2LjAxNi4yNDIuMDE5LjI0MS4wMi4yMzkuMDIzLjIzNi4wMjQuMjMzLjAyNy4yMzEuMDI4LjIyOS4wMzEuMjI1LjAzMi4yMjMuMDM0LjIyLjAzNi4yMTcuMDM4LjIxNC4wNC4yMTEuMDQxLjIwOC4wNDMuMjA1LjA0NS4yMDEuMDQ2LjE5OC4wNDguMTk0LjA1LjE5MS4wNTEuMTg3LjA1My4xODMuMDU0LjE4LjA1Ni4xNzUuMDU3LjE3Mi4wNTkuMTY4LjA2LjE2My4wNjEuMTYuMDYzLjE1NS4wNjQuMTUuMDY2LjA3NC4wMzMuMDczLjAzMy4wNzEuMDM0LjA3LjAzNC4wNjkuMDM1LjA2OC4wMzUuMDY3LjAzNS4wNjYuMDM1LjA2NC4wMzYuMDY0LjAzNi4wNjIuMDM2LjA2LjAzNi4wNi4wMzcuMDU4LjAzNy4wNTguMDM3LjA1NS4wMzguMDU1LjAzOC4wNTMuMDM4LjA1Mi4wMzguMDUxLjAzOS4wNS4wMzkuMDQ4LjAzOS4wNDcuMDM5LjA0NS4wNC4wNDQuMDQuMDQzLjA0LjA0MS4wNC4wNC4wNDEuMDM5LjA0MS4wMzcuMDQxLjAzNi4wNDEuMDM0LjA0MS4wMzMuMDQyLjAzMi4wNDIuMDMuMDQyLjAyOS4wNDIuMDI3LjA0Mi4wMjYuMDQzLjAyNC4wNDMuMDIzLjA0My4wMjEuMDQzLjAyLjA0My4wMTguMDQ0LjAxNy4wNDMuMDE1LjA0NC4wMTMuMDQ0LjAxMi4wNDQuMDExLjA0NS4wMDkuMDQ0LjAwNy4wNDUuMDA2LjA0NS4wMDQuMDQ1LjAwMi4wNDUuMDAxLjA0NXYxN2wtLjAwMS4wNDUtLjAwMi4wNDUtLjAwNC4wNDUtLjAwNi4wNDUtLjAwNy4wNDUtLjAwOS4wNDQtLjAxMS4wNDUtLjAxMi4wNDQtLjAxMy4wNDQtLjAxNS4wNDQtLjAxNy4wNDMtLjAxOC4wNDQtLjAyLjA0My0uMDIxLjA0My0uMDIzLjA0My0uMDI0LjA0My0uMDI2LjA0My0uMDI3LjA0Mi0uMDI5LjA0Mi0uMDMuMDQyLS4wMzIuMDQyLS4wMzMuMDQyLS4wMzQuMDQxLS4wMzYuMDQxLS4wMzcuMDQxLS4wMzkuMDQxLS4wNC4wNDEtLjA0MS4wNC0uMDQzLjA0LS4wNDQuMDQtLjA0NS4wNC0uMDQ3LjAzOS0uMDQ4LjAzOS0uMDUuMDM5LS4wNTEuMDM5LS4wNTIuMDM4LS4wNTMuMDM4LS4wNTUuMDM4LS4wNTUuMDM4LS4wNTguMDM3LS4wNTguMDM3LS4wNi4wMzctLjA2LjAzNi0uMDYyLjAzNi0uMDY0LjAzNi0uMDY0LjAzNi0uMDY2LjAzNS0uMDY3LjAzNS0uMDY4LjAzNS0uMDY5LjAzNS0uMDcuMDM0LS4wNzEuMDM0LS4wNzMuMDMzLS4wNzQuMDMzLS4xNS4wNjYtLjE1NS4wNjQtLjE2LjA2My0uMTYzLjA2MS0uMTY4LjA2LS4xNzIuMDU5LS4xNzUuMDU3LS4xOC4wNTYtLjE4My4wNTQtLjE4Ny4wNTMtLjE5MS4wNTEtLjE5NC4wNS0uMTk4LjA0OC0uMjAxLjA0Ni0uMjA1LjA0NS0uMjA4LjA0My0uMjExLjA0MS0uMjE0LjA0LS4yMTcuMDM4LS4yMi4wMzYtLjIyMy4wMzQtLjIyNS4wMzItLjIyOS4wMzEtLjIzMS4wMjgtLjIzMy4wMjctLjIzNi4wMjQtLjIzOS4wMjMtLjI0MS4wMi0uMjQyLjAxOS0uMjQ2LjAxNi0uMjQ3LjAxNS0uMjQ5LjAxMi0uMjUxLjAxLS4yNTMuMDA4LS4yNTUuMDA1LS4yNTYuMDA0LS4yNTguMDAxLS4yNTgtLjAwMS0uMjU2LS4wMDQtLjI1NS0uMDA1LS4yNTMtLjAwOC0uMjUxLS4wMS0uMjQ5LS4wMTItLjI0Ny0uMDE1LS4yNDUtLjAxNi0uMjQzLS4wMTktLjI0MS0uMDItLjIzOC0uMDIzLS4yMzYtLjAyNC0uMjM0LS4wMjctLjIzMS0uMDI4LS4yMjgtLjAzMS0uMjI2LS4wMzItLjIyMy0uMDM0LS4yMi0uMDM2LS4yMTctLjAzOC0uMjE0LS4wNC0uMjExLS4wNDEtLjIwOC0uMDQzLS4yMDQtLjA0NS0uMjAxLS4wNDYtLjE5OC0uMDQ4LS4xOTUtLjA1LS4xOS0uMDUxLS4xODctLjA1My0uMTg0LS4wNTQtLjE3OS0uMDU2LS4xNzYtLjA1Ny0uMTcyLS4wNTktLjE2Ny0uMDYtLjE2NC0uMDYxLS4xNTktLjA2My0uMTU1LS4wNjQtLjE1MS0uMDY2LS4wNzQtLjAzMy0uMDcyLS4wMzMtLjA3Mi0uMDM0LS4wNy0uMDM0LS4wNjktLjAzNS0uMDY4LS4wMzUtLjA2Ny0uMDM1LS4wNjYtLjAzNS0uMDY0LS4wMzYtLjA2My0uMDM2LS4wNjItLjAzNi0uMDYxLS4wMzYtLjA2LS4wMzctLjA1OC0uMDM3LS4wNTctLjAzNy0uMDU2LS4wMzgtLjA1NS0uMDM4LS4wNTMtLjAzOC0uMDUyLS4wMzgtLjA1MS0uMDM5LS4wNDktLjAzOS0uMDQ5LS4wMzktLjA0Ni0uMDM5LS4wNDYtLjA0LS4wNDQtLjA0LS4wNDMtLjA0LS4wNDEtLjA0LS4wNC0uMDQxLS4wMzktLjA0MS0uMDM3LS4wNDEtLjAzNi0uMDQxLS4wMzQtLjA0MS0uMDMzLS4wNDItLjAzMi0uMDQyLS4wMy0uMDQyLS4wMjktLjA0Mi0uMDI3LS4wNDItLjAyNi0uMDQzLS4wMjQtLjA0My0uMDIzLS4wNDMtLjAyMS0uMDQzLS4wMi0uMDQzLS4wMTgtLjA0NC0uMDE3LS4wNDMtLjAxNS0uMDQ0LS4wMTMtLjA0NC0uMDEyLS4wNDQtLjAxMS0uMDQ1LS4wMDktLjA0NC0uMDA3LS4wNDUtLjAwNi0uMDQ1LS4wMDQtLjA0NS0uMDAyLS4wNDUtLjAwMS0uMDQ1di0xN2wuMDAxLS4wNDUuMDAyLS4wNDUuMDA0LS4wNDUuMDA2LS4wNDUuMDA3LS4wNDUuMDA5LS4wNDQuMDExLS4wNDUuMDEyLS4wNDQuMDEzLS4wNDQuMDE1LS4wNDQuMDE3LS4wNDMuMDE4LS4wNDQuMDItLjA0My4wMjEtLjA0My4wMjMtLjA0My4wMjQtLjA0My4wMjYtLjA0My4wMjctLjA0Mi4wMjktLjA0Mi4wMy0uMDQyLjAzMi0uMDQyLjAzMy0uMDQyLjAzNC0uMDQxLjAzNi0uMDQxLjAzNy0uMDQxLjAzOS0uMDQxLjA0LS4wNDEuMDQxLS4wNC4wNDMtLjA0LjA0NC0uMDQuMDQ2LS4wNC4wNDYtLjAzOS4wNDktLjAzOS4wNDktLjAzOS4wNTEtLjAzOS4wNTItLjAzOC4wNTMtLjAzOC4wNTUtLjAzOC4wNTYtLjAzOC4wNTctLjAzNy4wNTgtLjAzNy4wNi0uMDM3LjA2MS0uMDM2LjA2Mi0uMDM2LjA2My0uMDM2LjA2NC0uMDM2LjA2Ni0uMDM1LjA2Ny0uMDM1LjA2OC0uMDM1LjA2OS0uMDM1LjA3LS4wMzQuMDcyLS4wMzQuMDcyLS4wMzMuMDc0LS4wMzMuMTUxLS4wNjYuMTU1LS4wNjQuMTU5LS4wNjMuMTY0LS4wNjEuMTY3LS4wNi4xNzItLjA1OS4xNzYtLjA1Ny4xNzktLjA1Ni4xODQtLjA1NC4xODctLjA1My4xOS0uMDUxLjE5NS0uMDUuMTk4LS4wNDguMjAxLS4wNDYuMjA0LS4wNDUuMjA4LS4wNDMuMjExLS4wNDEuMjE0LS4wNC4yMTctLjAzOC4yMi0uMDM2LjIyMy0uMDM0LjIyNi0uMDMyLjIyOC0uMDMxLjIzMS0uMDI4LjIzNC0uMDI3LjIzNi0uMDI0LjIzOC0uMDIzLjI0MS0uMDIuMjQzLS4wMTkuMjQ1LS4wMTYuMjQ3LS4wMTUuMjQ5LS4wMTIuMjUxLS4wMS4yNTMtLjAwOC4yNTUtLjAwNS4yNTYtLjAwNC4yNTgtLjAwMS4yNTguMDAxem0tOS4yNTggMjAuNDk5di4wMWwuMDAxLjAyMS4wMDMuMDIxLjAwNC4wMjIuMDA1LjAyMS4wMDYuMDIyLjAwNy4wMjIuMDA5LjAyMy4wMS4wMjIuMDExLjAyMy4wMTIuMDIzLjAxMy4wMjMuMDE1LjAyMy4wMTYuMDI0LjAxNy4wMjMuMDE4LjAyNC4wMTkuMDI0LjAyMS4wMjQuMDIyLjAyNS4wMjMuMDI0LjAyNC4wMjUuMDUyLjA0OS4wNTYuMDUuMDYxLjA1MS4wNjYuMDUxLjA3LjA1MS4wNzUuMDUxLjA3OS4wNTIuMDg0LjA1Mi4wODguMDUyLjA5Mi4wNTIuMDk3LjA1Mi4xMDIuMDUxLjEwNS4wNTIuMTEuMDUyLjExNC4wNTEuMTE5LjA1MS4xMjMuMDUxLjEyNy4wNS4xMzEuMDUuMTM1LjA1LjEzOS4wNDguMTQ0LjA0OS4xNDcuMDQ3LjE1Mi4wNDcuMTU1LjA0Ny4xNi4wNDUuMTYzLjA0NS4xNjcuMDQzLjE3MS4wNDMuMTc2LjA0MS4xNzguMDQxLjE4My4wMzkuMTg3LjAzOS4xOS4wMzcuMTk0LjAzNS4xOTcuMDM1LjIwMi4wMzMuMjA0LjAzMS4yMDkuMDMuMjEyLjAyOS4yMTYuMDI3LjIxOS4wMjUuMjIyLjAyNC4yMjYuMDIxLjIzLjAyLjIzMy4wMTguMjM2LjAxNi4yNC4wMTUuMjQzLjAxMi4yNDYuMDEuMjQ5LjAwOC4yNTMuMDA1LjI1Ni4wMDQuMjU5LjAwMS4yNi0uMDAxLjI1Ny0uMDA0LjI1NC0uMDA1LjI1LS4wMDguMjQ3LS4wMTEuMjQ0LS4wMTIuMjQxLS4wMTQuMjM3LS4wMTYuMjMzLS4wMTguMjMxLS4wMjEuMjI2LS4wMjEuMjI0LS4wMjQuMjItLjAyNi4yMTYtLjAyNy4yMTItLjAyOC4yMS0uMDMxLjIwNS0uMDMxLjIwMi0uMDM0LjE5OC0uMDM0LjE5NC0uMDM2LjE5MS0uMDM3LjE4Ny0uMDM5LjE4My0uMDQuMTc5LS4wNC4xNzUtLjA0Mi4xNzItLjA0My4xNjgtLjA0NC4xNjMtLjA0NS4xNi0uMDQ2LjE1NS0uMDQ2LjE1Mi0uMDQ3LjE0OC0uMDQ4LjE0My0uMDQ5LjEzOS0uMDQ5LjEzNi0uMDUuMTMxLS4wNS4xMjYtLjA1LjEyMy0uMDUxLjExOC0uMDUyLjExNC0uMDUxLjExLS4wNTIuMTA2LS4wNTIuMTAxLS4wNTIuMDk2LS4wNTIuMDkyLS4wNTIuMDg4LS4wNTMuMDgzLS4wNTEuMDc5LS4wNTIuMDc0LS4wNTIuMDctLjA1MS4wNjUtLjA1MS4wNi0uMDUxLjA1Ni0uMDUuMDUxLS4wNS4wMjMtLjAyNC4wMjMtLjAyNS4wMjEtLjAyNC4wMi0uMDI0LjAxOS0uMDI0LjAxOC0uMDI0LjAxNy0uMDI0LjAxNS0uMDIzLjAxNC0uMDI0LjAxMy0uMDIzLjAxMi0uMDIzLjAxLS4wMjMuMDEtLjAyMi4wMDgtLjAyMi4wMDYtLjAyMi4wMDYtLjAyMi4wMDQtLjAyMi4wMDQtLjAyMS4wMDEtLjAyMS4wMDEtLjAyMXYtNC4xMjdsLS4wNzcuMDU1LS4wOC4wNTMtLjA4My4wNTQtLjA4NS4wNTMtLjA4Ny4wNTItLjA5LjA1Mi0uMDkzLjA1MS0uMDk1LjA1LS4wOTcuMDUtLjEuMDQ5LS4xMDIuMDQ5LS4xMDUuMDQ4LS4xMDYuMDQ3LS4xMDkuMDQ3LS4xMTEuMDQ2LS4xMTQuMDQ1LS4xMTUuMDQ1LS4xMTguMDQ0LS4xMi4wNDMtLjEyMi4wNDItLjEyNC4wNDItLjEyNi4wNDEtLjEyOC4wNC0uMTMuMDQtLjEzMi4wMzgtLjEzNC4wMzgtLjEzNS4wMzctLjEzOC4wMzctLjEzOS4wMzUtLjE0Mi4wMzUtLjE0My4wMzQtLjE0NC4wMzMtLjE0Ny4wMzItLjE0OC4wMzEtLjE1LjAzLS4xNTEuMDMtLjE1My4wMjktLjE1NC4wMjctLjE1Ni4wMjctLjE1OC4wMjYtLjE1OS4wMjUtLjE2MS4wMjQtLjE2Mi4wMjMtLjE2My4wMjItLjE2NS4wMjEtLjE2Ni4wMi0uMTY3LjAxOS0uMTY5LjAxOC0uMTY5LjAxNy0uMTcxLjAxNi0uMTczLjAxNS0uMTczLjAxNC0uMTc1LjAxMy0uMTc1LjAxMi0uMTc3LjAxMS0uMTc4LjAxLS4xNzkuMDA4LS4xNzkuMDA4LS4xODEuMDA2LS4xODIuMDA1LS4xODIuMDA0LS4xODQuMDAzLS4xODQuMDAyaC0uMzdsLS4xODQtLjAwMi0uMTg0LS4wMDMtLjE4Mi0uMDA0LS4xODItLjAwNS0uMTgxLS4wMDYtLjE3OS0uMDA4LS4xNzktLjAwOC0uMTc4LS4wMS0uMTc2LS4wMTEtLjE3Ni0uMDEyLS4xNzUtLjAxMy0uMTczLS4wMTQtLjE3Mi0uMDE1LS4xNzEtLjAxNi0uMTctLjAxNy0uMTY5LS4wMTgtLjE2Ny0uMDE5LS4xNjYtLjAyLS4xNjUtLjAyMS0uMTYzLS4wMjItLjE2Mi0uMDIzLS4xNjEtLjAyNC0uMTU5LS4wMjUtLjE1Ny0uMDI2LS4xNTYtLjAyNy0uMTU1LS4wMjctLjE1My0uMDI5LS4xNTEtLjAzLS4xNS0uMDMtLjE0OC0uMDMxLS4xNDYtLjAzMi0uMTQ1LS4wMzMtLjE0My0uMDM0LS4xNDEtLjAzNS0uMTQtLjAzNS0uMTM3LS4wMzctLjEzNi0uMDM3LS4xMzQtLjAzOC0uMTMyLS4wMzgtLjEzLS4wNC0uMTI4LS4wNC0uMTI2LS4wNDEtLjEyNC0uMDQyLS4xMjItLjA0Mi0uMTItLjA0NC0uMTE3LS4wNDMtLjExNi0uMDQ1LS4xMTMtLjA0NS0uMTEyLS4wNDYtLjEwOS0uMDQ3LS4xMDYtLjA0Ny0uMTA1LS4wNDgtLjEwMi0uMDQ5LS4xLS4wNDktLjA5Ny0uMDUtLjA5NS0uMDUtLjA5My0uMDUyLS4wOS0uMDUxLS4wODctLjA1Mi0uMDg1LS4wNTMtLjA4My0uMDU0LS4wOC0uMDU0LS4wNzctLjA1NHY0LjEyN3ptMC01LjY1NHYuMDExbC4wMDEuMDIxLjAwMy4wMjEuMDA0LjAyMS4wMDUuMDIyLjAwNi4wMjIuMDA3LjAyMi4wMDkuMDIyLjAxLjAyMi4wMTEuMDIzLjAxMi4wMjMuMDEzLjAyMy4wMTUuMDI0LjAxNi4wMjMuMDE3LjAyNC4wMTguMDI0LjAxOS4wMjQuMDIxLjAyNC4wMjIuMDI0LjAyMy4wMjUuMDI0LjAyNC4wNTIuMDUuMDU2LjA1LjA2MS4wNS4wNjYuMDUxLjA3LjA1MS4wNzUuMDUyLjA3OS4wNTEuMDg0LjA1Mi4wODguMDUyLjA5Mi4wNTIuMDk3LjA1Mi4xMDIuMDUyLjEwNS4wNTIuMTEuMDUxLjExNC4wNTEuMTE5LjA1Mi4xMjMuMDUuMTI3LjA1MS4xMzEuMDUuMTM1LjA0OS4xMzkuMDQ5LjE0NC4wNDguMTQ3LjA0OC4xNTIuMDQ3LjE1NS4wNDYuMTYuMDQ1LjE2My4wNDUuMTY3LjA0NC4xNzEuMDQyLjE3Ni4wNDIuMTc4LjA0LjE4My4wNC4xODcuMDM4LjE5LjAzNy4xOTQuMDM2LjE5Ny4wMzQuMjAyLjAzMy4yMDQuMDMyLjIwOS4wMy4yMTIuMDI4LjIxNi4wMjcuMjE5LjAyNS4yMjIuMDI0LjIyNi4wMjIuMjMuMDIuMjMzLjAxOC4yMzYuMDE2LjI0LjAxNC4yNDMuMDEyLjI0Ni4wMS4yNDkuMDA4LjI1My4wMDYuMjU2LjAwMy4yNTkuMDAxLjI2LS4wMDEuMjU3LS4wMDMuMjU0LS4wMDYuMjUtLjAwOC4yNDctLjAxLjI0NC0uMDEyLjI0MS0uMDE1LjIzNy0uMDE2LjIzMy0uMDE4LjIzMS0uMDIuMjI2LS4wMjIuMjI0LS4wMjQuMjItLjAyNS4yMTYtLjAyNy4yMTItLjAyOS4yMS0uMDMuMjA1LS4wMzIuMjAyLS4wMzMuMTk4LS4wMzUuMTk0LS4wMzYuMTkxLS4wMzcuMTg3LS4wMzkuMTgzLS4wMzkuMTc5LS4wNDEuMTc1LS4wNDIuMTcyLS4wNDMuMTY4LS4wNDQuMTYzLS4wNDUuMTYtLjA0NS4xNTUtLjA0Ny4xNTItLjA0Ny4xNDgtLjA0OC4xNDMtLjA0OC4xMzktLjA1LjEzNi0uMDQ5LjEzMS0uMDUuMTI2LS4wNTEuMTIzLS4wNTEuMTE4LS4wNTEuMTE0LS4wNTIuMTEtLjA1Mi4xMDYtLjA1Mi4xMDEtLjA1Mi4wOTYtLjA1Mi4wOTItLjA1Mi4wODgtLjA1Mi4wODMtLjA1Mi4wNzktLjA1Mi4wNzQtLjA1MS4wNy0uMDUyLjA2NS0uMDUxLjA2LS4wNS4wNTYtLjA1MS4wNTEtLjA0OS4wMjMtLjAyNS4wMjMtLjAyNC4wMjEtLjAyNS4wMi0uMDI0LjAxOS0uMDI0LjAxOC0uMDI0LjAxNy0uMDI0LjAxNS0uMDIzLjAxNC0uMDIzLjAxMy0uMDI0LjAxMi0uMDIyLjAxLS4wMjMuMDEtLjAyMy4wMDgtLjAyMi4wMDYtLjAyMi4wMDYtLjAyMi4wMDQtLjAyMS4wMDQtLjAyMi4wMDEtLjAyMS4wMDEtLjAyMXYtNC4xMzlsLS4wNzcuMDU0LS4wOC4wNTQtLjA4My4wNTQtLjA4NS4wNTItLjA4Ny4wNTMtLjA5LjA1MS0uMDkzLjA1MS0uMDk1LjA1MS0uMDk3LjA1LS4xLjA0OS0uMTAyLjA0OS0uMTA1LjA0OC0uMTA2LjA0Ny0uMTA5LjA0Ny0uMTExLjA0Ni0uMTE0LjA0NS0uMTE1LjA0NC0uMTE4LjA0NC0uMTIuMDQ0LS4xMjIuMDQyLS4xMjQuMDQyLS4xMjYuMDQxLS4xMjguMDQtLjEzLjAzOS0uMTMyLjAzOS0uMTM0LjAzOC0uMTM1LjAzNy0uMTM4LjAzNi0uMTM5LjAzNi0uMTQyLjAzNS0uMTQzLjAzMy0uMTQ0LjAzMy0uMTQ3LjAzMy0uMTQ4LjAzMS0uMTUuMDMtLjE1MS4wMy0uMTUzLjAyOC0uMTU0LjAyOC0uMTU2LjAyNy0uMTU4LjAyNi0uMTU5LjAyNS0uMTYxLjAyNC0uMTYyLjAyMy0uMTYzLjAyMi0uMTY1LjAyMS0uMTY2LjAyLS4xNjcuMDE5LS4xNjkuMDE4LS4xNjkuMDE3LS4xNzEuMDE2LS4xNzMuMDE1LS4xNzMuMDE0LS4xNzUuMDEzLS4xNzUuMDEyLS4xNzcuMDExLS4xNzguMDA5LS4xNzkuMDA5LS4xNzkuMDA3LS4xODEuMDA3LS4xODIuMDA1LS4xODIuMDA0LS4xODQuMDAzLS4xODQuMDAyaC0uMzdsLS4xODQtLjAwMi0uMTg0LS4wMDMtLjE4Mi0uMDA0LS4xODItLjAwNS0uMTgxLS4wMDctLjE3OS0uMDA3LS4xNzktLjAwOS0uMTc4LS4wMDktLjE3Ni0uMDExLS4xNzYtLjAxMi0uMTc1LS4wMTMtLjE3My0uMDE0LS4xNzItLjAxNS0uMTcxLS4wMTYtLjE3LS4wMTctLjE2OS0uMDE4LS4xNjctLjAxOS0uMTY2LS4wMi0uMTY1LS4wMjEtLjE2My0uMDIyLS4xNjItLjAyMy0uMTYxLS4wMjQtLjE1OS0uMDI1LS4xNTctLjAyNi0uMTU2LS4wMjctLjE1NS0uMDI4LS4xNTMtLjAyOC0uMTUxLS4wMy0uMTUtLjAzLS4xNDgtLjAzMS0uMTQ2LS4wMzMtLjE0NS0uMDMzLS4xNDMtLjAzMy0uMTQxLS4wMzUtLjE0LS4wMzYtLjEzNy0uMDM2LS4xMzYtLjAzNy0uMTM0LS4wMzgtLjEzMi0uMDM5LS4xMy0uMDM5LS4xMjgtLjA0LS4xMjYtLjA0MS0uMTI0LS4wNDItLjEyMi0uMDQzLS4xMi0uMDQzLS4xMTctLjA0NC0uMTE2LS4wNDQtLjExMy0uMDQ2LS4xMTItLjA0Ni0uMTA5LS4wNDYtLjEwNi0uMDQ3LS4xMDUtLjA0OC0uMTAyLS4wNDktLjEtLjA0OS0uMDk3LS4wNS0uMDk1LS4wNTEtLjA5My0uMDUxLS4wOS0uMDUxLS4wODctLjA1My0uMDg1LS4wNTItLjA4My0uMDU0LS4wOC0uMDU0LS4wNzctLjA1NHY0LjEzOXptMC01LjY2NnYuMDExbC4wMDEuMDIuMDAzLjAyMi4wMDQuMDIxLjAwNS4wMjIuMDA2LjAyMS4wMDcuMDIyLjAwOS4wMjMuMDEuMDIyLjAxMS4wMjMuMDEyLjAyMy4wMTMuMDIzLjAxNS4wMjMuMDE2LjAyNC4wMTcuMDI0LjAxOC4wMjMuMDE5LjAyNC4wMjEuMDI1LjAyMi4wMjQuMDIzLjAyNC4wMjQuMDI1LjA1Mi4wNS4wNTYuMDUuMDYxLjA1LjA2Ni4wNTEuMDcuMDUxLjA3NS4wNTIuMDc5LjA1MS4wODQuMDUyLjA4OC4wNTIuMDkyLjA1Mi4wOTcuMDUyLjEwMi4wNTIuMTA1LjA1MS4xMS4wNTIuMTE0LjA1MS4xMTkuMDUxLjEyMy4wNTEuMTI3LjA1LjEzMS4wNS4xMzUuMDUuMTM5LjA0OS4xNDQuMDQ4LjE0Ny4wNDguMTUyLjA0Ny4xNTUuMDQ2LjE2LjA0NS4xNjMuMDQ1LjE2Ny4wNDMuMTcxLjA0My4xNzYuMDQyLjE3OC4wNC4xODMuMDQuMTg3LjAzOC4xOS4wMzcuMTk0LjAzNi4xOTcuMDM0LjIwMi4wMzMuMjA0LjAzMi4yMDkuMDMuMjEyLjAyOC4yMTYuMDI3LjIxOS4wMjUuMjIyLjAyNC4yMjYuMDIxLjIzLjAyLjIzMy4wMTguMjM2LjAxNy4yNC4wMTQuMjQzLjAxMi4yNDYuMDEuMjQ5LjAwOC4yNTMuMDA2LjI1Ni4wMDMuMjU5LjAwMS4yNi0uMDAxLjI1Ny0uMDAzLjI1NC0uMDA2LjI1LS4wMDguMjQ3LS4wMS4yNDQtLjAxMy4yNDEtLjAxNC4yMzctLjAxNi4yMzMtLjAxOC4yMzEtLjAyLjIyNi0uMDIyLjIyNC0uMDI0LjIyLS4wMjUuMjE2LS4wMjcuMjEyLS4wMjkuMjEtLjAzLjIwNS0uMDMyLjIwMi0uMDMzLjE5OC0uMDM1LjE5NC0uMDM2LjE5MS0uMDM3LjE4Ny0uMDM5LjE4My0uMDM5LjE3OS0uMDQxLjE3NS0uMDQyLjE3Mi0uMDQzLjE2OC0uMDQ0LjE2My0uMDQ1LjE2LS4wNDUuMTU1LS4wNDcuMTUyLS4wNDcuMTQ4LS4wNDguMTQzLS4wNDkuMTM5LS4wNDkuMTM2LS4wNDkuMTMxLS4wNTEuMTI2LS4wNS4xMjMtLjA1MS4xMTgtLjA1Mi4xMTQtLjA1MS4xMS0uMDUyLjEwNi0uMDUyLjEwMS0uMDUyLjA5Ni0uMDUyLjA5Mi0uMDUyLjA4OC0uMDUyLjA4My0uMDUyLjA3OS0uMDUyLjA3NC0uMDUyLjA3LS4wNTEuMDY1LS4wNTEuMDYtLjA1MS4wNTYtLjA1LjA1MS0uMDQ5LjAyMy0uMDI1LjAyMy0uMDI1LjAyMS0uMDI0LjAyLS4wMjQuMDE5LS4wMjQuMDE4LS4wMjQuMDE3LS4wMjQuMDE1LS4wMjMuMDE0LS4wMjQuMDEzLS4wMjMuMDEyLS4wMjMuMDEtLjAyMi4wMS0uMDIzLjAwOC0uMDIyLjAwNi0uMDIyLjAwNi0uMDIyLjAwNC0uMDIyLjAwNC0uMDIxLjAwMS0uMDIxLjAwMS0uMDIxdi00LjE1M2wtLjA3Ny4wNTQtLjA4LjA1NC0uMDgzLjA1My0uMDg1LjA1My0uMDg3LjA1My0uMDkuMDUxLS4wOTMuMDUxLS4wOTUuMDUxLS4wOTcuMDUtLjEuMDQ5LS4xMDIuMDQ4LS4xMDUuMDQ4LS4xMDYuMDQ4LS4xMDkuMDQ2LS4xMTEuMDQ2LS4xMTQuMDQ2LS4xMTUuMDQ0LS4xMTguMDQ0LS4xMi4wNDMtLjEyMi4wNDMtLjEyNC4wNDItLjEyNi4wNDEtLjEyOC4wNC0uMTMuMDM5LS4xMzIuMDM5LS4xMzQuMDM4LS4xMzUuMDM3LS4xMzguMDM2LS4xMzkuMDM2LS4xNDIuMDM0LS4xNDMuMDM0LS4xNDQuMDMzLS4xNDcuMDMyLS4xNDguMDMyLS4xNS4wMy0uMTUxLjAzLS4xNTMuMDI4LS4xNTQuMDI4LS4xNTYuMDI3LS4xNTguMDI2LS4xNTkuMDI0LS4xNjEuMDI0LS4xNjIuMDIzLS4xNjMuMDIzLS4xNjUuMDIxLS4xNjYuMDItLjE2Ny4wMTktLjE2OS4wMTgtLjE2OS4wMTctLjE3MS4wMTYtLjE3My4wMTUtLjE3My4wMTQtLjE3NS4wMTMtLjE3NS4wMTItLjE3Ny4wMS0uMTc4LjAxLS4xNzkuMDA5LS4xNzkuMDA3LS4xODEuMDA2LS4xODIuMDA2LS4xODIuMDA0LS4xODQuMDAzLS4xODQuMDAxLS4xODUuMDAxLS4xODUtLjAwMS0uMTg0LS4wMDEtLjE4NC0uMDAzLS4xODItLjAwNC0uMTgyLS4wMDYtLjE4MS0uMDA2LS4xNzktLjAwNy0uMTc5LS4wMDktLjE3OC0uMDEtLjE3Ni0uMDEtLjE3Ni0uMDEyLS4xNzUtLjAxMy0uMTczLS4wMTQtLjE3Mi0uMDE1LS4xNzEtLjAxNi0uMTctLjAxNy0uMTY5LS4wMTgtLjE2Ny0uMDE5LS4xNjYtLjAyLS4xNjUtLjAyMS0uMTYzLS4wMjMtLjE2Mi0uMDIzLS4xNjEtLjAyNC0uMTU5LS4wMjQtLjE1Ny0uMDI2LS4xNTYtLjAyNy0uMTU1LS4wMjgtLjE1My0uMDI4LS4xNTEtLjAzLS4xNS0uMDMtLjE0OC0uMDMyLS4xNDYtLjAzMi0uMTQ1LS4wMzMtLjE0My0uMDM0LS4xNDEtLjAzNC0uMTQtLjAzNi0uMTM3LS4wMzYtLjEzNi0uMDM3LS4xMzQtLjAzOC0uMTMyLS4wMzktLjEzLS4wMzktLjEyOC0uMDQxLS4xMjYtLjA0MS0uMTI0LS4wNDEtLjEyMi0uMDQzLS4xMi0uMDQzLS4xMTctLjA0NC0uMTE2LS4wNDQtLjExMy0uMDQ2LS4xMTItLjA0Ni0uMTA5LS4wNDYtLjEwNi0uMDQ4LS4xMDUtLjA0OC0uMTAyLS4wNDgtLjEtLjA1LS4wOTctLjA0OS0uMDk1LS4wNTEtLjA5My0uMDUxLS4wOS0uMDUyLS4wODctLjA1Mi0uMDg1LS4wNTMtLjA4My0uMDUzLS4wOC0uMDU0LS4wNzctLjA1NHY0LjE1M3ptOC43NC04LjE3OWwtLjI1Ny4wMDQtLjI1NC4wMDUtLjI1LjAwOC0uMjQ3LjAxMS0uMjQ0LjAxMi0uMjQxLjAxNC0uMjM3LjAxNi0uMjMzLjAxOC0uMjMxLjAyMS0uMjI2LjAyMi0uMjI0LjAyMy0uMjIuMDI2LS4yMTYuMDI3LS4yMTIuMDI4LS4yMS4wMzEtLjIwNS4wMzItLjIwMi4wMzMtLjE5OC4wMzQtLjE5NC4wMzYtLjE5MS4wMzgtLjE4Ny4wMzgtLjE4My4wNC0uMTc5LjA0MS0uMTc1LjA0Mi0uMTcyLjA0My0uMTY4LjA0My0uMTYzLjA0NS0uMTYuMDQ2LS4xNTUuMDQ2LS4xNTIuMDQ4LS4xNDguMDQ4LS4xNDMuMDQ4LS4xMzkuMDQ5LS4xMzYuMDUtLjEzMS4wNS0uMTI2LjA1MS0uMTIzLjA1MS0uMTE4LjA1MS0uMTE0LjA1Mi0uMTEuMDUyLS4xMDYuMDUyLS4xMDEuMDUyLS4wOTYuMDUyLS4wOTIuMDUyLS4wODguMDUyLS4wODMuMDUyLS4wNzkuMDUyLS4wNzQuMDUxLS4wNy4wNTItLjA2NS4wNTEtLjA2LjA1LS4wNTYuMDUtLjA1MS4wNS0uMDIzLjAyNS0uMDIzLjAyNC0uMDIxLjAyNC0uMDIuMDI1LS4wMTkuMDI0LS4wMTguMDI0LS4wMTcuMDIzLS4wMTUuMDI0LS4wMTQuMDIzLS4wMTMuMDIzLS4wMTIuMDIzLS4wMS4wMjMtLjAxLjAyMi0uMDA4LjAyMi0uMDA2LjAyMy0uMDA2LjAyMS0uMDA0LjAyMi0uMDA0LjAyMS0uMDAxLjAyMS0uMDAxLjAyMS4wMDEuMDIxLjAwMS4wMjEuMDA0LjAyMS4wMDQuMDIyLjAwNi4wMjEuMDA2LjAyMy4wMDguMDIyLjAxLjAyMi4wMS4wMjMuMDEyLjAyMy4wMTMuMDIzLjAxNC4wMjMuMDE1LjAyNC4wMTcuMDIzLjAxOC4wMjQuMDE5LjAyNC4wMi4wMjUuMDIxLjAyNC4wMjMuMDI0LjAyMy4wMjUuMDUxLjA1LjA1Ni4wNS4wNi4wNS4wNjUuMDUxLjA3LjA1Mi4wNzQuMDUxLjA3OS4wNTIuMDgzLjA1Mi4wODguMDUyLjA5Mi4wNTIuMDk2LjA1Mi4xMDEuMDUyLjEwNi4wNTIuMTEuMDUyLjExNC4wNTIuMTE4LjA1MS4xMjMuMDUxLjEyNi4wNTEuMTMxLjA1LjEzNi4wNS4xMzkuMDQ5LjE0My4wNDguMTQ4LjA0OC4xNTIuMDQ4LjE1NS4wNDYuMTYuMDQ2LjE2My4wNDUuMTY4LjA0My4xNzIuMDQzLjE3NS4wNDIuMTc5LjA0MS4xODMuMDQuMTg3LjAzOC4xOTEuMDM4LjE5NC4wMzYuMTk4LjAzNC4yMDIuMDMzLjIwNS4wMzIuMjEuMDMxLjIxMi4wMjguMjE2LjAyNy4yMi4wMjYuMjI0LjAyMy4yMjYuMDIyLjIzMS4wMjEuMjMzLjAxOC4yMzcuMDE2LjI0MS4wMTQuMjQ0LjAxMi4yNDcuMDExLjI1LjAwOC4yNTQuMDA1LjI1Ny4wMDQuMjYuMDAxLjI2LS4wMDEuMjU3LS4wMDQuMjU0LS4wMDUuMjUtLjAwOC4yNDctLjAxMS4yNDQtLjAxMi4yNDEtLjAxNC4yMzctLjAxNi4yMzMtLjAxOC4yMzEtLjAyMS4yMjYtLjAyMi4yMjQtLjAyMy4yMi0uMDI2LjIxNi0uMDI3LjIxMi0uMDI4LjIxLS4wMzEuMjA1LS4wMzIuMjAyLS4wMzMuMTk4LS4wMzQuMTk0LS4wMzYuMTkxLS4wMzguMTg3LS4wMzguMTgzLS4wNC4xNzktLjA0MS4xNzUtLjA0Mi4xNzItLjA0My4xNjgtLjA0My4xNjMtLjA0NS4xNi0uMDQ2LjE1NS0uMDQ2LjE1Mi0uMDQ4LjE0OC0uMDQ4LjE0My0uMDQ4LjEzOS0uMDQ5LjEzNi0uMDUuMTMxLS4wNS4xMjYtLjA1MS4xMjMtLjA1MS4xMTgtLjA1MS4xMTQtLjA1Mi4xMS0uMDUyLjEwNi0uMDUyLjEwMS0uMDUyLjA5Ni0uMDUyLjA5Mi0uMDUyLjA4OC0uMDUyLjA4My0uMDUyLjA3OS0uMDUyLjA3NC0uMDUxLjA3LS4wNTIuMDY1LS4wNTEuMDYtLjA1LjA1Ni0uMDUuMDUxLS4wNS4wMjMtLjAyNS4wMjMtLjAyNC4wMjEtLjAyNC4wMi0uMDI1LjAxOS0uMDI0LjAxOC0uMDI0LjAxNy0uMDIzLjAxNS0uMDI0LjAxNC0uMDIzLjAxMy0uMDIzLjAxMi0uMDIzLjAxLS4wMjMuMDEtLjAyMi4wMDgtLjAyMi4wMDYtLjAyMy4wMDYtLjAyMS4wMDQtLjAyMi4wMDQtLjAyMS4wMDEtLjAyMS4wMDEtLjAyMS0uMDAxLS4wMjEtLjAwMS0uMDIxLS4wMDQtLjAyMS0uMDA0LS4wMjItLjAwNi0uMDIxLS4wMDYtLjAyMy0uMDA4LS4wMjItLjAxLS4wMjItLjAxLS4wMjMtLjAxMi0uMDIzLS4wMTMtLjAyMy0uMDE0LS4wMjMtLjAxNS0uMDI0LS4wMTctLjAyMy0uMDE4LS4wMjQtLjAxOS0uMDI0LS4wMi0uMDI1LS4wMjEtLjAyNC0uMDIzLS4wMjQtLjAyMy0uMDI1LS4wNTEtLjA1LS4wNTYtLjA1LS4wNi0uMDUtLjA2NS0uMDUxLS4wNy0uMDUyLS4wNzQtLjA1MS0uMDc5LS4wNTItLjA4My0uMDUyLS4wODgtLjA1Mi0uMDkyLS4wNTItLjA5Ni0uMDUyLS4xMDEtLjA1Mi0uMTA2LS4wNTItLjExLS4wNTItLjExNC0uMDUyLS4xMTgtLjA1MS0uMTIzLS4wNTEtLjEyNi0uMDUxLS4xMzEtLjA1LS4xMzYtLjA1LS4xMzktLjA0OS0uMTQzLS4wNDgtLjE0OC0uMDQ4LS4xNTItLjA0OC0uMTU1LS4wNDYtLjE2LS4wNDYtLjE2My0uMDQ1LS4xNjgtLjA0My0uMTcyLS4wNDMtLjE3NS0uMDQyLS4xNzktLjA0MS0uMTgzLS4wNC0uMTg3LS4wMzgtLjE5MS0uMDM4LS4xOTQtLjAzNi0uMTk4LS4wMzQtLjIwMi0uMDMzLS4yMDUtLjAzMi0uMjEtLjAzMS0uMjEyLS4wMjgtLjIxNi0uMDI3LS4yMi0uMDI2LS4yMjQtLjAyMy0uMjI2LS4wMjItLjIzMS0uMDIxLS4yMzMtLjAxOC0uMjM3LS4wMTYtLjI0MS0uMDE0LS4yNDQtLjAxMi0uMjQ3LS4wMTEtLjI1LS4wMDgtLjI1NC0uMDA1LS4yNTctLjAwNC0uMjYtLjAwMS0uMjYuMDAxeiIvPjwvc3ltYm9sPjwvZGVmcz48ZGVmcz48c3ltYm9sIGlkPSJjbG9jayIgd2lkdGg9IjI0IiBoZWlnaHQ9IjI0Ij48cGF0aCB0cmFuc2Zvcm09InNjYWxlKC41KSIgZD0iTTEyIDJjNS41MTQgMCAxMCA0LjQ4NiAxMCAxMHMtNC40ODYgMTAtMTAgMTAtMTAtNC40ODYtMTAtMTAgNC40ODYtMTAgMTAtMTB6bTAtMmMtNi42MjcgMC0xMiA1LjM3My0xMiAxMnM1LjM3MyAxMiAxMiAxMiAxMi01LjM3MyAxMi0xMi01LjM3My0xMi0xMi0xMnptNS44NDggMTIuNDU5Yy4yMDIuMDM4LjIwMi4zMzMuMDAxLjM3Mi0xLjkwNy4zNjEtNi4wNDUgMS4xMTEtNi41NDcgMS4xMTEtLjcxOSAwLTEuMzAxLS41ODItMS4zMDEtMS4zMDEgMC0uNTEyLjc3LTUuNDQ3IDEuMTI1LTcuNDQ1LjAzNC0uMTkyLjMxMi0uMTgxLjM0My4wMTRsLjk4NSA2LjIzOCA1LjM5NCAxLjAxMXoiLz48L3N5bWJvbD48L2RlZnM+PGRlZnM+PG1hcmtlciBpZD0iYXJyb3doZWFkIiByZWZYPSI3LjkiIHJlZlk9IjUiIG1hcmtlclVuaXRzPSJ1c2VyU3BhY2VPblVzZSIgbWFya2VyV2lkdGg9IjEyIiBtYXJrZXJIZWlnaHQ9IjEyIiBvcmllbnQ9ImF1dG8tc3RhcnQtcmV2ZXJzZSI+PHBhdGggZD0iTSAtMSAwIEwgMTAgNSBMIDAgMTAgeiIvPjwvbWFya2VyPjwvZGVmcz48ZGVmcz48bWFya2VyIGlkPSJjcm9zc2hlYWQiIG1hcmtlcldpZHRoPSIxNSIgbWFya2VySGVpZ2h0PSI4IiBvcmllbnQ9ImF1dG8iIHJlZlg9IjQiIHJlZlk9IjQuNSI+PHBhdGggZmlsbD0ibm9uZSIgc3Ryb2tlPSIjMDAwMDAwIiBzdHJva2Utd2lkdGg9IjFwdCIgZD0iTSAxLDIgTCA2LDcgTSA2LDIgTCAxLDciIHN0eWxlPSJzdHJva2UtZGFzaGFycmF5OiAwLCAwOyIvPjwvbWFya2VyPjwvZGVmcz48ZGVmcz48bWFya2VyIGlkPSJmaWxsZWQtaGVhZCIgcmVmWD0iMTUuNSIgcmVmWT0iNyIgbWFya2VyV2lkdGg9IjIwIiBtYXJrZXJIZWlnaHQ9IjI4IiBvcmllbnQ9ImF1dG8iPjxwYXRoIGQ9Ik0gMTgsNyBMOSwxMyBMMTQsNyBMOSwxIFoiLz48L21hcmtlcj48L2RlZnM+PGRlZnM+PG1hcmtlciBpZD0ic2VxdWVuY2VudW1iZXIiIHJlZlg9IjE1IiByZWZZPSIxNSIgbWFya2VyV2lkdGg9IjYwIiBtYXJrZXJIZWlnaHQ9IjQwIiBvcmllbnQ9ImF1dG8iPjxjaXJjbGUgY3g9IjE1IiBjeT0iMTUiIHI9IjYiLz48L21hcmtlcj48L2RlZnM+PGcgZGF0YS1ldD0iY29udHJvbC1zdHJ1Y3R1cmUiIGRhdGEtaWQ9ImliN2RiM2JkNmE0Ij48bGluZSB4MT0iNjQiIHkxPSIyODEiIHgyPSI2MjkiIHkyPSIyODEiIGNsYXNzPSJsb29wTGluZSIvPjxsaW5lIHgxPSI2MjkiIHkxPSIyODEiIHgyPSI2MjkiIHkyPSI1NDciIGNsYXNzPSJsb29wTGluZSIvPjxsaW5lIHgxPSI2NCIgeTE9IjU0NyIgeDI9IjYyOSIgeTI9IjU0NyIgY2xhc3M9Imxvb3BMaW5lIi8+PGxpbmUgeDE9IjY0IiB5MT0iMjgxIiB4Mj0iNjQiIHkyPSI1NDciIGNsYXNzPSJsb29wTGluZSIvPjxsaW5lIHgxPSI2NCIgeTE9IjQ2MyIgeDI9IjYyOSIgeTI9IjQ2MyIgY2xhc3M9Imxvb3BMaW5lIiBzdHlsZT0ic3Ryb2tlLWRhc2hhcnJheTogMywgMzsiLz48cG9seWdvbiBwb2ludHM9IjY0LDI4MSAxMTQsMjgxIDExNCwyOTQgMTA1LjYsMzAxIDY0LDMwMSIgY2xhc3M9ImxhYmVsQm94Ii8+PHRleHQgeD0iODkiIHk9IjI5NCIgdGV4dC1hbmNob3I9Im1pZGRsZSIgYWxpZ25tZW50LWJhc2VsaW5lPSJtaWRkbGUiIHN0eWxlPSJmb250LXNpemU6IDE2cHg7IGZvbnQtd2VpZ2h0OiA0MDA7IiBjbGFzcz0ibGFiZWxUZXh0Ij5hbHQ8L3RleHQ+PHRleHQgeD0iMzcxLjUiIHk9IjI5OSIgdGV4dC1hbmNob3I9Im1pZGRsZSIgc3R5bGU9ImZvbnQtc2l6ZTogMTZweDsgZm9udC13ZWlnaHQ6IDQwMDsiIGNsYXNzPSJsb29wVGV4dCI+PHRzcGFuIHg9IjM3MS41Ij5bRGF0YSBWYWxpZF08L3RzcGFuPjwvdGV4dD48dGV4dCB4PSIzNDYuNSIgeT0iNDgxIiB0ZXh0LWFuY2hvcj0ibWlkZGxlIiBzdHlsZT0iZm9udC1zaXplOiAxNnB4OyBmb250LXdlaWdodDogNDAwOyIgY2xhc3M9Imxvb3BUZXh0Ij5bRGF0YSBUaWRhayBWYWxpZF08L3RleHQ+PC9nPjx0ZXh0IHg9IjIxMCIgeT0iODAiIHRleHQtYW5jaG9yPSJtaWRkbGUiIGFsaWdubWVudC1iYXNlbGluZT0ibWlkZGxlIiBzdHlsZT0iZm9udC1zaXplOiAxNnB4OyBmb250LXdlaWdodDogNDAwOyIgY2xhc3M9Im1lc3NhZ2VUZXh0IiBkeT0iMWVtIj5NdWxhaTwvdGV4dD48bGluZSB4MT0iNzYiIHkxPSIxMDkiIHgyPSIzNDMiIHkyPSIxMDkiIGNsYXNzPSJtZXNzYWdlTGluZTAiIGRhdGEtZXQ9Im1lc3NhZ2UiIGRhdGEtaWQ9Imk1NDAyNjE1OGE2IiBkYXRhLWZyb209IlVzZXIiIGRhdGEtdG89IlN5c3RlbSIgc3Ryb2tlLXdpZHRoPSIyIiBzdHJva2U9Im5vbmUiIG1hcmtlci1lbmQ9InVybCgjYXJyb3doZWFkKSIgc3R5bGU9ImZpbGw6IG5vbmU7Ii8+PHRleHQgeD0iMjEzIiB5PSIxMjQiIHRleHQtYW5jaG9yPSJtaWRkbGUiIGFsaWdubWVudC1iYXNlbGluZT0ibWlkZGxlIiBzdHlsZT0iZm9udC1zaXplOiAxNnB4OyBmb250LXdlaWdodDogNDAwOyIgY2xhc3M9Im1lc3NhZ2VUZXh0IiBkeT0iMWVtIj5NaW50YSBJbmZvIFRyYW5zYWtzaTwvdGV4dD48bGluZSB4MT0iMzQ2IiB5MT0iMTUzIiB4Mj0iNzkiIHkyPSIxNTMiIGNsYXNzPSJtZXNzYWdlTGluZTAiIGRhdGEtZXQ9Im1lc3NhZ2UiIGRhdGEtaWQ9Imk0YzcwMjRkZWJjIiBkYXRhLWZyb209IlN5c3RlbSIgZGF0YS10bz0iVXNlciIgc3Ryb2tlLXdpZHRoPSIyIiBzdHJva2U9Im5vbmUiIG1hcmtlci1lbmQ9InVybCgjYXJyb3doZWFkKSIgc3R5bGU9ImZpbGw6IG5vbmU7Ii8+PHRleHQgeD0iMjEwIiB5PSIxNjgiIHRleHQtYW5jaG9yPSJtaWRkbGUiIGFsaWdubWVudC1iYXNlbGluZT0ibWlkZGxlIiBzdHlsZT0iZm9udC1zaXplOiAxNnB4OyBmb250LXdlaWdodDogNDAwOyIgY2xhc3M9Im1lc3NhZ2VUZXh0IiBkeT0iMWVtIj5NYXN1a2thbiBEYXRhIFRyYW5zYWtzaTwvdGV4dD48bGluZSB4MT0iNzYiIHkxPSIxOTciIHgyPSIzNDMiIHkyPSIxOTciIGNsYXNzPSJtZXNzYWdlTGluZTAiIGRhdGEtZXQ9Im1lc3NhZ2UiIGRhdGEtaWQ9ImlmYzM0OTc3M2RiIiBkYXRhLWZyb209IlVzZXIiIGRhdGEtdG89IlN5c3RlbSIgc3Ryb2tlLXdpZHRoPSIyIiBzdHJva2U9Im5vbmUiIG1hcmtlci1lbmQ9InVybCgjYXJyb3doZWFkKSIgc3R5bGU9ImZpbGw6IG5vbmU7Ii8+PHRleHQgeD0iMzQ4IiB5PSIyMTIiIHRleHQtYW5jaG9yPSJtaWRkbGUiIGFsaWdubWVudC1iYXNlbGluZT0ibWlkZGxlIiBzdHlsZT0iZm9udC1zaXplOiAxNnB4OyBmb250LXdlaWdodDogNDAwOyIgY2xhc3M9Im1lc3NhZ2VUZXh0IiBkeT0iMWVtIj5WYWxpZGFzaSBEYXRhPC90ZXh0PjxwYXRoIGQ9Ik0gMzQ4LDI0MSBDIDQwOCwyMzEgNDA4LDI3MSAzNDgsMjYxIiBjbGFzcz0ibWVzc2FnZUxpbmUwIiBkYXRhLWV0PSJtZXNzYWdlIiBkYXRhLWlkPSJpMzM2NjJjMGE0NiIgZGF0YS1mcm9tPSJTeXN0ZW0iIGRhdGEtdG89IlN5c3RlbSIgc3Ryb2tlLXdpZHRoPSIyIiBzdHJva2U9Im5vbmUiIG1hcmtlci1lbmQ9InVybCgjYXJyb3doZWFkKSIgc3R5bGU9ImZpbGw6IG5vbmU7Ii8+PHRleHQgeD0iNDgxIiB5PSIzMzEiIHRleHQtYW5jaG9yPSJtaWRkbGUiIGFsaWdubWVudC1iYXNlbGluZT0ibWlkZGxlIiBzdHlsZT0iZm9udC1zaXplOiAxNnB4OyBmb250LXdlaWdodDogNDAwOyIgY2xhc3M9Im1lc3NhZ2VUZXh0IiBkeT0iMWVtIj5TaW1wYW4gRGF0YTwvdGV4dD48bGluZSB4MT0iMzQ4IiB5MT0iMzYwIiB4Mj0iNjE0IiB5Mj0iMzYwIiBjbGFzcz0ibWVzc2FnZUxpbmUwIiBkYXRhLWV0PSJtZXNzYWdlIiBkYXRhLWlkPSJpY2UyNjNkMDNjNyIgZGF0YS1mcm9tPSJTeXN0ZW0iIGRhdGEtdG89IkRCIiBzdHJva2Utd2lkdGg9IjIiIHN0cm9rZT0ibm9uZSIgbWFya2VyLWVuZD0idXJsKCNhcnJvd2hlYWQpIiBzdHlsZT0iZmlsbDogbm9uZTsiLz48dGV4dCB4PSI0ODEiIHk9IjM3NSIgdGV4dC1hbmNob3I9Im1pZGRsZSIgYWxpZ25tZW50LWJhc2VsaW5lPSJtaWRkbGUiIHN0eWxlPSJmb250LXNpemU6IDE2cHg7IGZvbnQtd2VpZ2h0OiA0MDA7IiBjbGFzcz0ibWVzc2FnZVRleHQiIGR5PSIxZW0iPlVwZGF0ZSBUb3RhbCBCaWF5YSBQcm9kdWtzaTwvdGV4dD48bGluZSB4MT0iMzQ4IiB5MT0iNDA0IiB4Mj0iNjE0IiB5Mj0iNDA0IiBjbGFzcz0ibWVzc2FnZUxpbmUwIiBkYXRhLWV0PSJtZXNzYWdlIiBkYXRhLWlkPSJpZDcwN2NjZTljOSIgZGF0YS1mcm9tPSJTeXN0ZW0iIGRhdGEtdG89IkRCIiBzdHJva2Utd2lkdGg9IjIiIHN0cm9rZT0ibm9uZSIgbWFya2VyLWVuZD0idXJsKCNhcnJvd2hlYWQpIiBzdHlsZT0iZmlsbDogbm9uZTsiLz48dGV4dCB4PSIyMTMiIHk9IjQxOSIgdGV4dC1hbmNob3I9Im1pZGRsZSIgYWxpZ25tZW50LWJhc2VsaW5lPSJtaWRkbGUiIHN0eWxlPSJmb250LXNpemU6IDE2cHg7IGZvbnQtd2VpZ2h0OiA0MDA7IiBjbGFzcz0ibWVzc2FnZVRleHQiIGR5PSIxZW0iPktvbmZpcm1hc2kgVHJhbnNha3NpPC90ZXh0PjxsaW5lIHgxPSIzNDYiIHkxPSI0NDgiIHgyPSI3OSIgeTI9IjQ0OCIgY2xhc3M9Im1lc3NhZ2VMaW5lMCIgZGF0YS1ldD0ibWVzc2FnZSIgZGF0YS1pZD0iaWJjNjFiNGMyZGUiIGRhdGEtZnJvbT0iU3lzdGVtIiBkYXRhLXRvPSJVc2VyIiBzdHJva2Utd2lkdGg9IjIiIHN0cm9rZT0ibm9uZSIgbWFya2VyLWVuZD0idXJsKCNhcnJvd2hlYWQpIiBzdHlsZT0iZmlsbDogbm9uZTsiLz48dGV4dCB4PSIyMTMiIHk9IjUwOCIgdGV4dC1hbmNob3I9Im1pZGRsZSIgYWxpZ25tZW50LWJhc2VsaW5lPSJtaWRkbGUiIHN0eWxlPSJmb250LXNpemU6IDE2cHg7IGZvbnQtd2VpZ2h0OiA0MDA7IiBjbGFzcz0ibWVzc2FnZVRleHQiIGR5PSIxZW0iPlRhbXBpbGthbiBQZXNhbiBLZXNhbGFoYW48L3RleHQ+PGxpbmUgeDE9IjM0NiIgeTE9IjUzNyIgeDI9Ijc5IiB5Mj0iNTM3IiBjbGFzcz0ibWVzc2FnZUxpbmUwIiBkYXRhLWV0PSJtZXNzYWdlIiBkYXRhLWlkPSJpYjkzZDViYmU3YyIgZGF0YS1mcm9tPSJTeXN0ZW0iIGRhdGEtdG89IlVzZXIiIHN0cm9rZS13aWR0aD0iMiIgc3Ryb2tlPSJub25lIiBtYXJrZXItZW5kPSJ1cmwoI2Fycm93aGVhZCkiIHN0eWxlPSJmaWxsOiBub25lOyIvPjwvc3ZnPg==;" vertex="1" parent="1">
          <mxGeometry x="420" y="380" width="497.47" height="410" as="geometry" />
        </mxCell>
        <mxCell id="oGXNRmYpK9hgrRhwOUNr-3" value="" style="endArrow=classic;html=1;rounded=0;" edge="1" parent="1" source="aM9ryv3xv72pqoxQDRHE-5" target="aM9ryv3xv72pqoxQDRHE-1">
          <mxGeometry width="50" height="50" relative="1" as="geometry">
            <mxPoint x="302.9848199999999" y="684.0899999999999" as="sourcePoint" />
            <mxPoint x="230" y="680" as="targetPoint" />
            <Array as="points">
              <mxPoint x="260" y="680" />
            </Array>
          </mxGeometry>
        </mxCell>
      </root>
    </mxGraphModel>
  </diagram>
</mxfile>
